<svg xmlns="http://www.w3.org/2000/svg" version="1.1" xmlns:xlink="http://www.w3.org/1999/xlink" width="512" height="512" x="0" y="0" viewBox="0 0 512 512" style="enable-background:new 0 0 512 512" xml:space="preserve" class=""><g><g fill-rule="evenodd" clip-rule="evenodd"><path fill="#0edbcb" d="M293.5 97.501V67.5H271V45h-30v22.5h-22.5v30.001H241v22.5h30v-22.5z" opacity="1" data-original="#e46a4a" class=""></path><path fill="#e5ecf5" d="M293.5 97.501H271v22.5h-30v-22.5h-22.5v-30H241V45h30v22.5h22.5zm-37.5 60c41.649 0 75-33.806 75-75 0-41.29-33.448-75-75-75s-75 33.71-75 75c0 41.193 33.351 75 75 75z" opacity="1" data-original="#e5ecf5" class=""></path><path fill="#bbbbbe" d="m328.034 103.454 148.638 76.703 27.828 14.361v-33.759L330.086 70.754c1.71 10.877 1.019 22.125-2.052 32.7zM35.328 180.158l148.638-76.703c-3.071-10.576-3.762-21.823-2.052-32.7L7.5 160.76v33.759z" opacity="1" data-original="#bbbbbe" class=""></path><path fill="#78777c" d="m328.034 103.454 20.287 10.469c3.323-9.76 5.139-20.215 5.175-31.088l-23.41-12.081c1.71 10.877 1.019 22.125-2.052 32.7zm-164.355 10.469c-3.323-9.76-5.139-20.215-5.175-31.088l23.41-12.081c-1.71 10.877-1.019 22.124 2.052 32.7z" opacity="1" data-original="#78777c" class=""></path><path fill="#bbbbbe" d="M400.84 61.251v46.016l45 23.222V61.251z" opacity="1" data-original="#bbbbbe" class=""></path><path fill="#78777c" d="M400.84 81.948v25.319l45 23.222V105.17z" opacity="1" data-original="#78777c" class=""></path><path fill="#bbbbbe" d="M400.84 61.251h45c8.25 0 15-6.75 15-15s-6.75-15-15-15h-45c-8.25 0-15 6.75-15 15s6.749 15 15 15z" opacity="1" data-original="#bbbbbe" class=""></path><path fill="#fbf2e2" d="M169.509 214.358c-15.498 0-37.356 9.426-44.725 14.007l11.144 25.174v22.5h-22.501v25.963c0 30.981 25.373 56.081 56.082 56.081s56.082-25.1 56.082-56.081v-25.963H203.09v-22.5l11.146-25.177c-10.98-9.357-27.854-14.015-44.727-14.004z" opacity="1" data-original="#fbf2e2"></path><path fill="#e5ecf5" d="M135.928 253.538c-.935-2.113-11.132-25.174-11.15-25.174-16.572.006-26.351 24.424-26.351 32.674s6.751 15 15 15h22.501zm67.163 0v22.5h22.501c8.249 0 15-6.75 15-15 0-8.249-9.779-32.668-26.351-32.674-.016.001-10.214 23.06-11.15 25.174z" opacity="1" data-original="#e5ecf5" class=""></path><path fill="#f7e0ba" d="M197.55 350.518c-8.262 4.806-17.845 7.564-28.041 7.564s-19.779-2.758-28.041-7.564v26.003c0 15.487 12.554 28.041 28.041 28.041s28.041-12.554 28.041-28.041z" opacity="1" data-original="#f7e0ba" class=""></path><path fill="#0edbcb" d="M273.69 504.5v-90.23c0-14.975-12.745-23.425-27.229-27.229l-48.911-10.52c0 15.487-12.554 28.041-28.041 28.041s-28.041-12.554-28.041-28.041l-48.911 10.52c-14.484 3.804-27.229 12.253-27.229 27.229v90.23z" opacity="1" data-original="#e46a4a" class=""></path><path fill="#e5ecf5" d="M321.95 421.521V504.5h56.082v-82.979c0 15.487-12.554 28.041-28.041 28.041s-28.041-12.555-28.041-28.041z" opacity="1" data-original="#e5ecf5" class=""></path><path fill="#bbbbbe" d="M378.031 504.5h68.64v-65.63c0-14.975-12.745-23.425-27.229-27.229l-41.411-12.62zM273.69 414.27v90.23h48.26V399.021z" opacity="1" data-original="#bbbbbe" class=""></path><path fill="#f7e0ba" d="M349.99 449.562c15.487 0 28.041-12.554 28.041-28.041l.001-48.505a55.604 55.604 0 0 1-28.042 7.565 55.613 55.613 0 0 1-28.041-7.564v48.503c.001 15.487 12.555 28.042 28.041 28.042z" opacity="1" data-original="#f7e0ba" class=""></path><path fill="#fbf2e2" d="M349.99 380.582c30.706 0 56.082-25.103 56.082-56.081v-14.427c-33.6 0-91.164-46.574-112.164 0v14.427c0 30.981 25.374 56.081 56.082 56.081z" opacity="1" data-original="#fbf2e2"></path><path fill="#e5ecf5" d="M293.908 310.074c21-46.574 78.564 0 112.164 0v14.427c0 20.644-11.31 38.78-28.039 48.517 50.183-5.4 58.041-38.195 58.041-62.944 0-47.639-38.915-86.081-86.083-86.081s-86.083 38.441-86.083 86.081c0 24.749 7.858 57.544 58.041 62.944-16.731-9.733-28.041-27.869-28.041-48.517z" opacity="1" data-original="#e5ecf5" class=""></path><path fill="#b0c5e0" d="M349.991 223.994a85.43 85.43 0 0 1 40.121 9.961c.944-22.813-17.267-41.837-40.121-41.837s-41.065 19.024-40.121 41.837a85.433 85.433 0 0 1 40.121-9.961z" opacity="1" data-original="#b0c5e0" class=""></path><path fill="#c4e5f9" d="M309.871 233.954c-.944-22.813 17.267-41.837 40.121-41.837s41.065 19.024 40.121 41.837c27.293 14.466 45.962 43.187 45.962 76.12 0 24.749-7.858 57.544-58.043 62.943v26.004l41.411 12.62c14.484 3.803 27.229 12.253 27.229 27.229v65.63h30V180.158l-148.638-76.703c-9.067 31.224-37.885 54.046-72.034 54.046s-62.966-22.822-72.034-54.046L35.328 180.158V504.5h30v-90.23c0-14.975 12.745-23.425 27.229-27.229l48.911-10.52v-26.003c-16.731-9.733-28.041-27.869-28.041-48.517v-25.963c-8.249 0-15-6.75-15-15 0-8.249 9.779-32.668 26.351-32.674.645-1.25 27.577-14.018 44.731-14.007 16.873-.011 33.746 4.647 44.725 14.007 16.576 0 26.357 24.424 26.357 32.674s-6.751 15-15 15v25.963c0 20.648-11.31 38.784-28.041 48.517v26.004l48.911 10.52c14.484 3.804 27.229 12.253 27.229 27.229l48.26-15.249v-26.003c-50.183-5.4-58.041-38.195-58.041-62.944 0-32.933 18.669-61.654 45.962-76.121z" opacity="1" data-original="#c4e5f9" class=""></path><path fill="#83c8f1" d="M476.671 205.477v-25.319l-148.638-76.703c-9.067 31.224-37.885 54.046-72.034 54.046s-62.966-22.822-72.034-54.046L35.328 180.158V504.5h22.5V193.866l115.516-59.611C190.717 161.955 221.518 180 256 180s65.283-18.045 82.656-45.745z" opacity="1" data-original="#83c8f1" class=""></path><path fill="#b0c5e0" d="M267.25 156.662c-36.245-5.439-63.75-36.753-63.75-74.162 0-37.489 27.574-68.727 63.75-74.161C222.009 1.543 181 36.428 181 82.5c0 46.078 41.005 80.951 86.25 74.162z" opacity="1" data-original="#b0c5e0" class=""></path><path fill="#78777c" d="M400.84 61.251h22.5c-8.25 0-15-6.75-15-15s6.75-15 15-15h-22.5c-8.25 0-15 6.75-15 15s6.749 15 15 15z" opacity="1" data-original="#78777c" class=""></path><path fill="#0edbcb" d="M87.828 388.477c-12.419 4.318-22.5 12.474-22.5 25.793v90.23h22.5z" opacity="1" data-original="#db380e" class=""></path><path fill="#78777c" d="M273.69 414.27v90.23h22.499v-97.339z" opacity="1" data-original="#78777c" class=""></path><path fill="#f7e0ba" d="M135.927 276.038h-22.5v25.963c0 30.981 25.373 56.081 56.082 56.081 3.847 0 7.61-.394 11.25-1.144-25.417-5.237-44.832-27.836-44.832-54.937z" opacity="1" data-original="#f7e0ba" class=""></path><path fill="#b0c5e0" d="M402.281 344.717c-4.651 11.935-13.285 21.921-24.248 28.301 43.289-4.658 62.546-32.402 57.37-73.694-2.102 17.348-9.875 35.838-33.122 45.393zm-137.702-45.393c-5.175 41.292 14.081 69.036 57.37 73.694-10.964-6.379-19.6-16.365-24.251-28.302-23.243-9.556-31.017-28.045-33.119-45.392z" opacity="1" data-original="#b0c5e0" class=""></path><path fill="#f7e0ba" d="M361.239 379.437c-25.417-5.238-44.831-27.838-44.831-54.936v-34.259c-9.237 2.019-17.085 7.825-22.5 19.832v14.427c0 35.499 32.869 62.035 67.331 54.936z" opacity="1" data-original="#f7e0ba" class=""></path></g><path fill="#ffffff" d="m442.48 204.713-13.33-6.879 6.879-13.33 13.33 6.878zm-26.659-13.758-13.33-6.878 6.879-13.33 13.33 6.879z" opacity="1" data-original="#ffffff" class=""></path><path d="M278.5 37.5h-45V60H211v45h22.5v22.5h45V105H301V60h-22.5zM286 75v15h-22.5v22.5h-15V90H226V75h22.5V52.5h15V75zM469.171 444.5h15v15h-15z" fill="#000000" opacity="1" data-original="#000000" class=""></path><path d="m512 156.191-58.66-30.271V67.461c8.729-3.096 15-11.433 15-21.21 0-12.407-10.093-22.5-22.5-22.5h-45c-12.407 0-22.5 10.093-22.5 22.5 0 9.778 6.271 18.114 15 21.21v27.496l-56.546-29.181C329.042 28.276 295.762 0 256 0s-73.042 28.276-80.794 65.776l-77.271 39.876 6.879 13.33 68.711-35.459a82.459 82.459 0 0 0 1.745 15.979L15 182.208v-16.879l76.482-39.468-6.879-13.33L0 156.191v50.638l27.828-14.36V512h456.343v-37.5h-15V497h-15v-58.13c0-16.398-11.909-28.947-32.679-34.444l-35.961-10.959v-13.918c27.901-4.68 58.043-20.96 58.043-69.474 0-34.241-18.489-64.239-46.004-80.553-.631-11.337-5.223-21.936-13.194-30.246-9.068-9.453-21.28-14.659-34.385-14.659s-25.316 5.206-34.384 14.658c-7.972 8.31-12.563 18.909-13.195 30.247-27.515 16.313-46.004 46.312-46.004 80.552 0 48.513 30.14 64.793 58.041 69.474v13.978l-34.801 10.996c-3.844-11.62-14.774-20.399-31.283-24.735l-43.315-9.324v-15.766c16.906-11.439 28.041-30.791 28.041-52.696v-19.753c8.729-3.096 15-11.433 15-21.21 0-11.14-10.839-37.65-30.987-39.989-11.773-9.043-28.911-14.191-47.525-14.191h-.129c-18.622 0-35.762 5.148-47.534 14.191-20.149 2.339-30.988 28.849-30.988 39.989 0 9.778 6.271 18.114 15 21.21v19.753c0 21.904 11.135 41.257 28.041 52.696v15.766l-42.988 9.246-.328.078c-20.86 5.478-32.824 18.046-32.824 34.483V497h-15V184.727l136.956-70.675C192.201 143.931 221.682 165 256.001 165s63.8-21.07 76.216-50.948l136.956 70.675V429.5h15V192.468L512 206.829zM115.708 473.103l23.15-11.329 30.65 15 30.65-15 23.15 11.329V497h-107.6zm282.865-148.602c0 26.788-21.794 48.581-48.583 48.581-26.788 0-48.582-21.793-48.582-48.581v-12.749c10.819-21.918 31.629-16.268 64.258-4.434 11.62 4.214 22.726 8.242 32.906 9.691v7.492zm-69.123 60.157c6.448 2.208 13.353 3.424 20.541 3.424s14.092-1.216 20.541-3.424v36.863c0 11.326-9.215 20.541-20.541 20.541s-20.541-9.215-20.541-20.541zm0 65.839a35.334 35.334 0 0 0 20.541 6.564 35.33 35.33 0 0 0 20.541-6.565V497H329.45zm87.806-31.682.282.08c17.88 4.695 21.634 13.454 21.634 19.975V497h-53.64v-87.852zM326.432 209.66c6.212-6.476 14.58-10.042 23.56-10.042s17.348 3.566 23.56 10.043a32.537 32.537 0 0 1 7.368 12.092c-9.686-3.402-20.094-5.258-30.928-5.258s-21.241 1.857-30.928 5.259a32.528 32.528 0 0 1 7.368-12.094zm-55.023 100.414c0-43.33 35.252-78.581 78.583-78.581s78.583 35.251 78.583 78.581c0 23.846-7.997 39.628-24.788 48.255a63.176 63.176 0 0 0 9.786-33.829v-21.926h-7.5c-9.49 0-22.023-4.545-35.292-9.357-15.097-5.475-30.707-11.137-45.145-11.337-17.976-.277-30.94 8.2-38.565 25.112l-.663 1.47v16.039a63.18 63.18 0 0 0 9.785 33.828c-16.788-8.628-24.784-24.41-24.784-48.255zM314.45 497h-33.26v-77.234l33.26-10.509zm-81.359-235.962c0 4.136-3.364 7.5-7.5 7.5h-15v-13.414l8.054-18.195c8.522 4.122 14.446 19.045 14.446 24.109zm-112.718-24.109 8.055 18.195v13.414h-15c-4.135 0-7.5-3.365-7.5-7.5-.001-5.064 5.923-19.987 14.445-24.109zm.554 65.072v-18.463h22.5v-31.586l-9.342-21.104c9.042-5.685 21.809-8.99 35.376-8.99h.106c13.557 0 26.324 3.306 35.366 8.99l-9.342 21.104v31.586h22.5v18.463c0 26.788-21.794 48.581-48.582 48.581s-48.582-21.793-48.582-48.581zm48.582 63.581a63.284 63.284 0 0 0 20.541-3.424v14.364c0 11.326-9.215 20.541-20.541 20.541s-20.541-9.214-20.541-20.541v-14.364a63.288 63.288 0 0 0 20.541 3.424zm-96.68 48.688c0-6.501 3.732-15.228 21.475-19.933l40.832-8.782c4.007 15.236 17.898 26.507 34.374 26.507s30.367-11.271 34.374-26.507l40.832 8.782c17.743 4.706 21.475 13.431 21.475 19.933V497h-27.88v-64.652h-15v24.055l-23.15-11.329-30.65 15-30.65-15-23.15 11.329v-24.055h-15V497h-27.88v-82.73zM400.84 38.75h45c4.135 0 7.5 3.365 7.5 7.5 0 4.136-3.365 7.5-7.5 7.5h-45c-4.135 0-7.5-3.365-7.5-7.5s3.365-7.5 7.5-7.5zm7.5 30.001h30v49.428l-30-15.481zM256 150.001c-37.22 0-67.5-30.281-67.5-67.5S218.78 15 256 15s67.5 30.28 67.5 67.5-30.28 67.501-67.5 67.501zm241 32.208L336.729 99.502a82.459 82.459 0 0 0 1.745-15.979L497 165.329z" fill="#000000" opacity="1" data-original="#000000" class=""></path></g></svg>
