<svg xmlns="http://www.w3.org/2000/svg" version="1.1" xmlns:xlink="http://www.w3.org/1999/xlink" width="512" height="512" x="0" y="0" viewBox="0 0 64 64" style="enable-background:new 0 0 512 512" xml:space="preserve" class=""><g><linearGradient id="f" x1="32" x2="32" y1="8.5" y2="46.324" gradientUnits="userSpaceOnUse"><stop offset="0" stop-color="#00e1ff"></stop><stop offset=".09" stop-color="#00d5fd"></stop><stop offset=".55" stop-color="#009df1"></stop><stop offset=".772" stop-color="#0087ec"></stop><stop offset="1" stop-color="#0081eb"></stop></linearGradient><linearGradient id="l" x1="33.324" x2="25.674" y1="21.873" y2="56.636" gradientUnits="userSpaceOnUse"><stop offset="0" stop-color="#008bed" stop-opacity="0"></stop><stop offset=".029" stop-color="#0089ea" stop-opacity=".031"></stop><stop offset=".944" stop-color="#064999"></stop></linearGradient><linearGradient id="m" x1="58.03" x2="46.3" y1="8.97" y2="20.7" gradientUnits="userSpaceOnUse"><stop offset="0" stop-color="#fff" stop-opacity=".7"></stop><stop offset=".112" stop-color="#fff" stop-opacity=".672"></stop><stop offset=".276" stop-color="#fff" stop-opacity=".594"></stop><stop offset=".473" stop-color="#fff" stop-opacity=".467"></stop><stop offset=".695" stop-color="#fff" stop-opacity=".29"></stop><stop offset=".936" stop-color="#fff" stop-opacity=".065"></stop><stop offset="1" stop-color="#fff" stop-opacity="0"></stop></linearGradient><linearGradient id="a" x1="32" x2="32" y1="10.831" y2="26.756" gradientUnits="userSpaceOnUse"><stop offset="0" stop-color="#5953eb"></stop><stop offset=".096" stop-color="#4951c8"></stop><stop offset=".265" stop-color="#2e4d90"></stop><stop offset=".347" stop-color="#244b7a"></stop><stop offset=".777" stop-color="#152b46"></stop><stop offset="1" stop-color="#0e1e30"></stop></linearGradient><linearGradient id="b" x1="32" x2="32" y1="36.791" y2="31.156" gradientUnits="userSpaceOnUse"><stop offset="0" stop-color="#ffd9d9"></stop><stop offset=".662" stop-color="#ffa9a9"></stop><stop offset="1" stop-color="#ff9696"></stop></linearGradient><linearGradient xlink:href="#a" id="n" x1="23.903" x2="23.903" y1="25.922" y2="22.772"></linearGradient><linearGradient id="d" x1="40.46" x2="40.46" y1="26.016" y2="21.28" gradientUnits="userSpaceOnUse"><stop offset="0" stop-color="#5953eb"></stop><stop offset=".158" stop-color="#4951c8"></stop><stop offset=".434" stop-color="#2e4d90"></stop><stop offset=".568" stop-color="#244b7a"></stop><stop offset=".852" stop-color="#152b46"></stop><stop offset="1" stop-color="#0e1e30"></stop></linearGradient><linearGradient id="o" x1="32" x2="32" y1="32.062" y2="18.611" gradientUnits="userSpaceOnUse"><stop offset="0" stop-color="#fef1de"></stop><stop offset=".666" stop-color="#ffc0bb"></stop><stop offset="1" stop-color="#ffadad"></stop></linearGradient><linearGradient id="p" x1="38.164" x2="26.352" y1="20.037" y2="29.037" gradientUnits="userSpaceOnUse"><stop offset="0" stop-color="#fedfde" stop-opacity="0"></stop><stop offset="1" stop-color="#feafbc"></stop></linearGradient><linearGradient xlink:href="#b" id="q" x2="32" y1="36.938" y2="31.462"></linearGradient><linearGradient xlink:href="#a" id="r" x2="32" y1="9.6" y2="26.382"></linearGradient><radialGradient id="c" cx="-50.679" cy="40.726" r="1.771" gradientTransform="translate(108.047 -30.996) scale(1.412)" gradientUnits="userSpaceOnUse"><stop offset="0" stop-color="#ef273d" stop-opacity=".5"></stop><stop offset=".154" stop-color="#ef2e42" stop-opacity=".477"></stop><stop offset=".351" stop-color="#f04452" stop-opacity=".411"></stop><stop offset=".57" stop-color="#f2676c" stop-opacity=".302"></stop><stop offset=".803" stop-color="#f59790" stop-opacity=".152"></stop><stop offset="1" stop-color="#f7c8b4" stop-opacity="0"></stop></radialGradient><radialGradient xlink:href="#c" id="s" cx="-57.054" cy="40.726" r="1.771"></radialGradient><linearGradient id="t" x1="32" x2="32" y1="29.972" y2="28.13" gradientUnits="userSpaceOnUse"><stop offset=".015" stop-color="#de585c"></stop><stop offset=".99" stop-color="#ab2c30"></stop></linearGradient><linearGradient xlink:href="#a" id="u" x1="23.903" x2="23.903" y1="25.894" y2="22.744"></linearGradient><linearGradient xlink:href="#d" id="v" x1="40.46" x2="40.46" y1="25.988" y2="21.252"></linearGradient><linearGradient id="e" x1="38.342" x2="34.292" y1="41.158" y2="40.427" gradientUnits="userSpaceOnUse"><stop offset="0" stop-color="#fff"></stop><stop offset=".1" stop-color="#fcfcfb"></stop><stop offset=".682" stop-color="#efebe8"></stop><stop offset="1" stop-color="#c7f5ff"></stop></linearGradient><linearGradient xlink:href="#e" id="w" x1="25.994" x2="29.144" y1="41.277" y2="40.527"></linearGradient><linearGradient xlink:href="#f" id="x" x1="32" x2="32" y1="34.625" y2="50.55"></linearGradient><linearGradient xlink:href="#e" id="y" x1="18.242" x2="25.273" y1="43.475" y2="41.113"></linearGradient><linearGradient xlink:href="#e" id="z" x1="46.905" x2="38.299" y1="44.201" y2="40.995"></linearGradient><linearGradient id="i" x1="18.006" x2="28.839" y1="28.5" y2="28.5" gradientUnits="userSpaceOnUse"><stop offset="0" stop-color="#00a4f2" stop-opacity="0"></stop><stop offset=".41" stop-color="#0191e5" stop-opacity=".398"></stop><stop offset="1" stop-color="#0275d1"></stop></linearGradient><linearGradient id="h" x1="18.447" x2="19.947" y1="39.267" y2="49.392" gradientUnits="userSpaceOnUse"><stop offset="0" stop-color="#48ffb3"></stop><stop offset=".392" stop-color="#30ddb2"></stop><stop offset=".776" stop-color="#1bc0b1"></stop><stop offset=".853" stop-color="#11b4a8"></stop><stop offset="1" stop-color="#00a19a"></stop></linearGradient><linearGradient id="A" x1="32" x2="32" y1="52.806" y2="50.158" gradientUnits="userSpaceOnUse"><stop offset="0" stop-color="#e9f8fd"></stop><stop offset=".186" stop-color="#dbf5fd"></stop><stop offset=".496" stop-color="#c8f0fd"></stop><stop offset="1" stop-color="#9ed3fb"></stop></linearGradient><linearGradient id="B" x1="32" x2="32" y1="52.975" y2="57.156" gradientUnits="userSpaceOnUse"><stop offset="0" stop-color="#c9f3fd"></stop><stop offset=".506" stop-color="#c8f1fd"></stop><stop offset=".631" stop-color="#bbe8fc"></stop><stop offset=".861" stop-color="#9ad2f8"></stop><stop offset="1" stop-color="#82c2f5"></stop></linearGradient><linearGradient id="C" x1="32" x2="32" y1="52.975" y2="47.036" gradientUnits="userSpaceOnUse"><stop offset="0" stop-color="#fff"></stop><stop offset=".075" stop-color="#fcfcfb"></stop><stop offset=".516" stop-color="#efebe8"></stop><stop offset="1" stop-color="#c7f5ff"></stop></linearGradient><linearGradient id="g" x1="61.919" x2="3.749" y1="55" y2="55" gradientUnits="userSpaceOnUse"><stop offset="0" stop-color="#c9f3fd" stop-opacity="0"></stop><stop offset=".144" stop-color="#c9f2fd" stop-opacity=".128"></stop><stop offset=".386" stop-color="#c8f1fd" stop-opacity=".324"></stop><stop offset=".506" stop-color="#c8f1fd" stop-opacity=".4"></stop><stop offset=".592" stop-color="#c6effd" stop-opacity=".416"></stop><stop offset=".674" stop-color="#c0eafc" stop-opacity=".466"></stop><stop offset=".756" stop-color="#b6e0fb" stop-opacity=".548"></stop><stop offset=".837" stop-color="#a8d4f9" stop-opacity=".664"></stop><stop offset=".918" stop-color="#96c3f6" stop-opacity=".813"></stop><stop offset=".998" stop-color="#80aff3" stop-opacity=".994"></stop><stop offset="1" stop-color="#7faef3"></stop></linearGradient><linearGradient xlink:href="#g" id="D" x1="31" x2="31" y1="52.975" y2="47.036"></linearGradient><linearGradient xlink:href="#h" id="E" x1="54" x2="54" y1="1.5" y2="15.45"></linearGradient><linearGradient xlink:href="#h" id="F" x1="10" x2="10" y1="20.387" y2="35.357"></linearGradient><linearGradient id="G" x1="50" x2="50" y1="23.437" y2="32.973" gradientUnits="userSpaceOnUse"><stop offset="0" stop-color="#f8ffff"></stop><stop offset=".307" stop-color="#f5ffff"></stop><stop offset=".532" stop-color="#ecffff"></stop><stop offset=".731" stop-color="#dcfeff"></stop><stop offset=".914" stop-color="#c5fdfe"></stop><stop offset="1" stop-color="#b8fdfe"></stop></linearGradient><linearGradient id="j" x1="17" x2="17" y1="35.022" y2="31.223" gradientUnits="userSpaceOnUse"><stop offset="0" stop-color="#0458af" stop-opacity="0"></stop><stop offset=".742" stop-color="#034181" stop-opacity=".735"></stop><stop offset="1" stop-color="#033970"></stop></linearGradient><linearGradient xlink:href="#i" id="H" x1="47" x2="47" y1="15.962" y2="12.84"></linearGradient><linearGradient xlink:href="#i" id="I" x1="54.805" x2="53.605" y1="17.506" y2="13.55"></linearGradient><linearGradient xlink:href="#j" id="J" x1="9.418" x2="10.599" y1="35.697" y2="32.856"></linearGradient><linearGradient id="k" x1="53.5" x2="53.5" y1="33.035" y2="29.962" gradientUnits="userSpaceOnUse"><stop offset="0" stop-color="#008fee" stop-opacity="0"></stop><stop offset=".459" stop-color="#007dd7" stop-opacity=".447"></stop><stop offset="1" stop-color="#0067ba"></stop></linearGradient><linearGradient xlink:href="#k" id="K" x1="50" x2="50" y1="36.035" y2="32.962"></linearGradient><linearGradient xlink:href="#k" id="L" x1="46.5" x2="46.5" y1="33.035" y2="29.962"></linearGradient><g data-name="17_Conversation"><path fill="url(#f)" d="M60 9v38H4V9a2.006 2.006 0 0 1 2-2h52a2.006 2.006 0 0 1 2 2z" opacity="1" data-original="url(#f)"></path><path fill="url(#l)" d="M10 14V7H6a2.006 2.006 0 0 0-2 2v38h56v-5H38a28 28 0 0 1-28-28z" opacity="1" data-original="url(#l)" class=""></path><path fill="url(#m)" d="M46.243 8H58a1 1 0 0 1 1 1v11.757a3 3 0 0 1-5.121 2.122l-9.758-9.758A3 3 0 0 1 46.243 8z" opacity="1" data-original="url(#m)"></path><path fill="url(#a)" d="M25 21v4a5.365 5.365 0 0 0 .08.99L25 26s-3-2-3-7a7.115 7.115 0 0 1 1.55-4.93A3.256 3.256 0 0 1 26 13l2-2s1-1 4-1c4 0 10 4 10 9s-3 7-3 7l-.08-.01A5.365 5.365 0 0 0 39 25v-7s-4 3-8 3v-3s-4 3-6 3z" opacity="1" data-original="url(#a)" class=""></path><path fill="url(#b)" d="M35 31.32V34l-3 3-3-3v-2.68a6.958 6.958 0 0 0 6 0z" opacity="1" data-original="url(#b)"></path><path fill="url(#a)" d="M22.725 22.934A7.122 7.122 0 0 0 25 26.028l.08-.01a5.365 5.365 0 0 1-.08-.99v-4a3.971 3.971 0 0 1-2.275 1.906z" opacity="1" data-original="url(#a)" class=""></path><path fill="url(#d)" d="M40 21.028a4.938 4.938 0 0 1-1-3v7a5.365 5.365 0 0 1-.08.99l.08.01s3-2 3-7a6.15 6.15 0 0 0-.046-.623A3.865 3.865 0 0 1 40 21.028z" opacity="1" data-original="url(#d)"></path><path fill="url(#o)" d="M35 31.32a6.958 6.958 0 0 1-6 0 6.93 6.93 0 0 1-3.92-5.33A5.365 5.365 0 0 1 25 25v-4c2 0 6-3 6-3v3c4 0 8-3 8-3v7a5.365 5.365 0 0 1-.08.99A6.942 6.942 0 0 1 35 31.32z" opacity="1" data-original="url(#o)"></path><path fill="url(#p)" d="M35 31.32a6.958 6.958 0 0 1-6 0 6.93 6.93 0 0 1-3.92-5.33A5.365 5.365 0 0 1 25 25v-4c2 0 6-3 6-3v3c4 0 8-3 8-3v7a5.365 5.365 0 0 1-.08.99A6.942 6.942 0 0 1 35 31.32z" opacity="1" data-original="url(#p)"></path><path fill="url(#b)" d="M35 31.32V34l-3 3-3-3v-2.68a6.958 6.958 0 0 0 6 0z" opacity="1" data-original="url(#b)"></path><path fill="url(#a)" d="M42 19c0 5-3 7-3 7l-.08-.01A5.365 5.365 0 0 0 39 25v-7s-4 3-8 3v-3s-4 3-6 3v4a5.365 5.365 0 0 0 .08.99L25 26s-3-2-3-7a7.115 7.115 0 0 1 1.55-4.93A3.256 3.256 0 0 1 26 13l2-2s1-1 4-1c4 0 10 4 10 9z" opacity="1" data-original="url(#a)" class=""></path><circle cx="36.5" cy="26.5" r="2.5" fill="url(#c)" opacity="1" data-original="url(#c)"></circle><circle cx="27.5" cy="26.5" r="2.5" fill="url(#s)" opacity="1" data-original="url(#s)"></circle><path fill="url(#t)" d="M30 28h4a2 2 0 0 1-2 2 2 2 0 0 1-2-2z" opacity="1" data-original="url(#t)"></path><path fill="url(#a)" d="M22.725 22.906A7.122 7.122 0 0 0 25 26l.08-.01A5.365 5.365 0 0 1 25 25v-4a3.971 3.971 0 0 1-2.275 1.906z" opacity="1" data-original="url(#a)" class=""></path><path fill="url(#d)" d="M40 21a4.938 4.938 0 0 1-1-3v7a5.365 5.365 0 0 1-.08.99L39 26s3-2 3-7a6.129 6.129 0 0 0-.046-.623A3.865 3.865 0 0 1 40 21z" opacity="1" data-original="url(#d)"></path><path fill="url(#e)" d="m39 42-2-2 2-1-1.97-4.93A7.036 7.036 0 0 0 36 34l-3.25 13h3.75z" opacity="1" data-original="url(#e)"></path><path fill="url(#e)" d="M28 34a7.036 7.036 0 0 0-1.03.07L25 39l2 1-2 2 2.5 5h3.75z" opacity="1" data-original="url(#e)"></path><path fill="url(#f)" d="m35 34-3 3-3-3h-1l3.25 13h1.5L36 34z" opacity="1" data-original="url(#f)"></path><path fill="url(#e)" d="m27 40-2-1 1.97-4.93A7.994 7.994 0 0 0 20 42v5h7.5L25 42z" opacity="1" data-original="url(#e)"></path><path fill="url(#e)" d="M44 42a7.994 7.994 0 0 0-6.97-7.93L39 39l-2 1 2 2-2.5 5H44z" opacity="1" data-original="url(#e)"></path><path fill="url(#i)" d="M25.08 25.99v.028l-.08.01a7.122 7.122 0 0 1-2.275-3.094h.011A10.172 10.172 0 0 1 22 19a7.115 7.115 0 0 1 1.55-4.93A3.256 3.256 0 0 1 26 13l2-2a4.457 4.457 0 0 1 2.287-.867A7.241 7.241 0 0 0 29 10c-3 0-4 1-4 1l-2 2a3.256 3.256 0 0 0-2.45 1.07A7.115 7.115 0 0 0 19 19a10.172 10.172 0 0 0 .736 3.93h-.011A7.122 7.122 0 0 0 22 26.028l.08-.01v-.028A6.93 6.93 0 0 0 26 31.32V34h-1a7.036 7.036 0 0 0-1.03.07A7.994 7.994 0 0 0 17 42v5h3v-5a7.994 7.994 0 0 1 6.97-7.93A7.036 7.036 0 0 1 28 34h1v-2.68a6.93 6.93 0 0 1-3.92-5.33z" opacity="1" data-original="url(#i)"></path><path fill="url(#h)" d="m22 39 2 8h-8l-2-8z" opacity="1" data-original="url(#h)" class=""></path><path fill="url(#A)" d="m39 50 1 3H24l1-3z" opacity="1" data-original="url(#A)"></path><path fill="url(#B)" d="M1 53h62a4 4 0 0 1-4 4H5a4 4 0 0 1-4-4z" opacity="1" data-original="url(#B)"></path><path fill="url(#C)" d="M10 47h50l3 6H40l-1-3H25l-1 3H1l3-6z" opacity="1" data-original="url(#C)"></path><path fill="url(#g)" d="M1 53h62a4 4 0 0 1-4 4H5a4 4 0 0 1-4-4z" opacity="1" data-original="url(#g)" class=""></path><path fill="url(#g)" d="M13.472 49H61l-1-2H4l-3 6h6a7.237 7.237 0 0 1 6.472-4z" opacity="1" data-original="url(#g)" class=""></path><path fill="url(#h)" d="M63 3v8a2.006 2.006 0 0 1-2 2h-5l-7 4v-4h-2a2.006 2.006 0 0 1-2-2V3a2.006 2.006 0 0 1 2-2h14a2.006 2.006 0 0 1 2 2z" opacity="1" data-original="url(#h)" class=""></path><path fill="url(#h)" d="M17 32h-2v4l-7-4H3a2.006 2.006 0 0 1-2-2v-8a2.006 2.006 0 0 1 2-2h14a2.006 2.006 0 0 1 2 2v8a2 2 0 0 1-2 2z" opacity="1" data-original="url(#h)" class=""></path><path fill="url(#G)" d="M55 26v4h-3v3h-4v-3h-3v-4h3v-3h4v3z" opacity="1" data-original="url(#G)"></path><path fill="url(#j)" d="M17 32h-2v3h2a2 2 0 0 0 2-2v-3a2 2 0 0 1-2 2z" opacity="1" data-original="url(#j)"></path><path fill="url(#i)" d="M47 13a2.006 2.006 0 0 1-2-2v3a2.006 2.006 0 0 0 2 2h2v-3z" opacity="1" data-original="url(#i)"></path><path fill="url(#i)" d="m56 13-7 4v3l7-4h4v-3z" opacity="1" data-original="url(#i)"></path><path fill="url(#j)" d="M8 32H4v3h4l7 4v-3z" opacity="1" data-original="url(#j)"></path><path fill="url(#k)" d="M52 30h3v3h-3z" opacity="1" data-original="url(#k)"></path><path fill="url(#k)" d="M48 33h4v3h-4z" opacity="1" data-original="url(#k)"></path><path fill="url(#k)" d="M45 30h3v3h-3z" opacity="1" data-original="url(#k)"></path><path d="M5 17H3V9a3 3 0 0 1 3-3h36v2H6a1 1 0 0 0-1 1zM60 48H4a1 1 0 0 1-1-1V35h2v11h54V20h2v27a1 1 0 0 1-1 1zM59 16h2v2h-2z" fill="#000000" opacity="1" data-original="#000000" class=""></path><path d="M5 54H1a1 1 0 0 1-.895-1.447l3-6A1 1 0 0 1 4 46h6v2H4.618l-2 4H5zM7 52h2v2H7zM63 54H11v-2h50.382l-2-4H57v-2h3a1 1 0 0 1 .9.553l3 6A1 1 0 0 1 63 54z" fill="#000000" opacity="1" data-original="#000000" class=""></path><path d="M59 58H5a5.006 5.006 0 0 1-5-5h2a3 3 0 0 0 3 3h54a3 3 0 0 0 3-3h2a5.006 5.006 0 0 1-5 5z" fill="#000000" opacity="1" data-original="#000000" class=""></path><path d="M40 54H24a1 1 0 0 1-.948-1.316l1-3A1 1 0 0 1 25 49h14a1 1 0 0 1 .948.684l1 3A1 1 0 0 1 40 54zm-14.612-2h13.224l-.333-1H25.721zM32 33a8.009 8.009 0 0 1-8-8v-4a1 1 0 0 1 1-1c1.146 0 3.849-1.637 5.4-2.8a1 1 0 0 1 1.6.8v1.934a15.964 15.964 0 0 0 6.4-2.734 1 1 0 0 1 1.6.8v7a8.009 8.009 0 0 1-8 8zm-6-11.142V25a6 6 0 0 0 12 0v-5.169A14.862 14.862 0 0 1 31 22a1 1 0 0 1-1-1v-1.09a15.218 15.218 0 0 1-4 1.948z" fill="#000000" opacity="1" data-original="#000000" class=""></path><path d="M32 38a1 1 0 0 1-.707-.293l-3-3A1 1 0 0 1 28 34v-3h2v2.586l2 2 2-2V31h2v3a1 1 0 0 1-.293.707l-3 3A1 1 0 0 1 32 38zM39.555 26.832l-1.11-1.664L39 26l-.562-.828C38.543 25.1 41 23.353 41 19s-5.528-8-9-8c-2.444 0-3.31.724-3.318.731l-1.975 1.976A1 1 0 0 1 26 14a2.258 2.258 0 0 0-1.7.729A6.214 6.214 0 0 0 23 19c0 4.353 2.457 6.1 2.562 6.172l-1.117 1.66C24.305 26.738 21 24.472 21 19a8.143 8.143 0 0 1 1.8-5.6 4.226 4.226 0 0 1 2.762-1.383l1.729-1.728C27.509 10.077 28.75 9 32 9c4.327 0 11 4.294 11 10 0 5.472-3.3 7.738-3.445 7.832z" fill="#000000" opacity="1" data-original="#000000" class=""></path><path d="m21.509 39.375-1.854-.75A8.964 8.964 0 0 1 28 33h1v2h-1a6.975 6.975 0 0 0-6.491 4.375zM45 47h-2v-5a7.009 7.009 0 0 0-7-7h-1v-2h1a9.01 9.01 0 0 1 9 9z" fill="#000000" opacity="1" data-original="#000000" class=""></path><path d="m37.4 47.447-1.79-.894 2.173-4.353-1.49-1.49a1 1 0 0 1 .26-1.6l1.176-.588-1.658-4.146 1.858-.742 2 5a1 1 0 0 1-.482 1.266l-.759.379 1.019 1.019a1 1 0 0 1 .188 1.154z" fill="#000000" opacity="1" data-original="#000000" class=""></path><path d="m31.765 46.751 3.243-12.998 1.94.484-3.244 12.998z" fill="#000000" opacity="1" data-original="#000000" class=""></path><path d="m27.042 34.224 1.939-.486 3.256 12.998-1.94.486z" fill="#000000" opacity="1" data-original="#000000" class=""></path><path d="m26.605 47.447-2.5-5a1 1 0 0 1 .188-1.154l1.019-1.019-.759-.379a1 1 0 0 1-.482-1.266l2-5 1.858.742-1.658 4.146 1.176.588a1 1 0 0 1 .26 1.6l-1.49 1.49 2.183 4.358zM24 48h-8a1 1 0 0 1-.97-.758l-2-8A1 1 0 0 1 14 38h8a1 1 0 0 1 .97.758l2 8A1 1 0 0 1 24 48zm-7.219-2h5.938l-1.5-6h-5.938zM49 18a1 1 0 0 1-1-1v-3h-1a3 3 0 0 1-3-3V3a3 3 0 0 1 3-3h14a3 3 0 0 1 3 3v8a3 3 0 0 1-3 3h-4.734L49.5 17.868A1 1 0 0 1 49 18zM47 2a1 1 0 0 0-1 1v8a1 1 0 0 0 1 1h2a1 1 0 0 1 1 1v2.277l5.5-3.145A.993.993 0 0 1 56 12h5a1 1 0 0 0 1-1V3a1 1 0 0 0-1-1z" fill="#000000" opacity="1" data-original="#000000" class=""></path><path d="M48 3h12v2H48zM48 6h12v2H48zM48 9h12v2H48zM15 37a1 1 0 0 1-.5-.132L7.734 33H3a3 3 0 0 1-3-3v-8a3 3 0 0 1 3-3h14a3 3 0 0 1 3 3v8a3 3 0 0 1-3 3h-1v3a1 1 0 0 1-1 1zM3 21a1 1 0 0 0-1 1v8a1 1 0 0 0 1 1h5a.993.993 0 0 1 .5.132l5.5 3.144V32a1 1 0 0 1 1-1h2a1 1 0 0 0 1-1v-8a1 1 0 0 0-1-1z" fill="#000000" opacity="1" data-original="#000000" class=""></path><path d="M4 22h12v2H4zM4 25h12v2H4zM4 28h12v2H4zM52 34h-4a1 1 0 0 1-1-1v-2h-2a1 1 0 0 1-1-1v-4a1 1 0 0 1 1-1h2v-2a1 1 0 0 1 1-1h4a1 1 0 0 1 1 1v2h2a1 1 0 0 1 1 1v4a1 1 0 0 1-1 1h-2v2a1 1 0 0 1-1 1zm-3-2h2v-2a1 1 0 0 1 1-1h2v-2h-2a1 1 0 0 1-1-1v-2h-2v2a1 1 0 0 1-1 1h-2v2h2a1 1 0 0 1 1 1z" fill="#000000" opacity="1" data-original="#000000" class=""></path></g></g></svg>