<svg xmlns="http://www.w3.org/2000/svg" version="1.1" xmlns:xlink="http://www.w3.org/1999/xlink" width="512" height="512" x="0" y="0" viewBox="0 0 64 64" style="enable-background:new 0 0 512 512" xml:space="preserve" class=""><g><path fill="#4aa5ff" d="M13.11 7.5h-6 .19c-4.744-.085-5.915 6.442-1.06 7.3 1.15.1 2.37-.52 2.74-1.52.36-.99 5.25.44 4.13.22z" opacity="1" data-original="#4aa5ff" class=""></path><path fill="#4aa5ff" d="M49 9.36a4.99 4.99 0 0 0-3.89-1.86H13.025c-.216.37-.526.68-.917.903V51.5a5 5 0 0 0 5 5h28a5 5 0 0 0 5-5v-39c0-1.19-.415-2.282-1.109-3.14z" opacity="1" data-original="#4aa5ff" class=""></path><rect width="31.796" height="43" x="15.211" y="10.5" fill="#e6f3ff" rx="1" opacity="1" data-original="#e6f3ff" class=""></rect><path fill="#21257c" d="M45.11 57.5h-28c-3.31 0-6-2.691-6-6v-44a1 1 0 0 1 1-1h33c3.308 0 6 2.691 6 6v39c0 3.309-2.692 6-6 6zm-32-49v43c0 2.206 1.794 4 4 4h28c2.205 0 4-1.794 4-4v-39c0-2.206-1.795-4-4-4z" opacity="1" data-original="#21257c" class=""></path><path fill="#4aa5ff" d="M35.91 15.1h-2.4v-2.4a1.2 1.2 0 0 0-1.2-1.2h-2.4a1.2 1.2 0 0 0-1.2 1.2v2.4h-2.4a1.2 1.2 0 0 0-1.2 1.2v2.4a1.2 1.2 0 0 0 1.2 1.2h2.4v2.4a1.2 1.2 0 0 0 1.2 1.2h2.4a1.2 1.2 0 0 0 1.2-1.2v-2.4h2.4a1.2 1.2 0 0 0 1.2-1.2v-2.4a1.2 1.2 0 0 0-1.2-1.2z" opacity="1" data-original="#4aa5ff" class=""></path><path fill="#21257c" d="M6.484 15.81C.26 15.305.95 6.667 7.11 6.5h5c1.312.023 1.317 1.977 0 2H7.3c-.979 0-1.94.4-2.511 1.043-1.411 1.452-.447 4.1 1.538 4.26.737.071 1.517-.334 1.715-.87.164-.425-.225-1.066-.684-1.131a1 1 0 0 1-.79-1.174c.503-1.634 2.605-.427 3.124.642 1.287 2.21-.794 4.586-3.207 4.54z" opacity="1" data-original="#21257c" class=""></path><path fill="#21257c" d="M12.11 14.5h-3c-1.314-.022-1.316-1.978 0-2h3c1.313.022 1.314 1.978 0 2z" opacity="1" data-original="#21257c" class=""></path><path fill="#4aa5ff" d="M48.97 36.3 34.83 50.44l-10.18 1.8c-.9.15-1.68-.63-1.52-1.53l1.8-10.17L39.07 26.4z" opacity="1" data-original="#4aa5ff" class=""></path><rect width="18" height="5" x="40.32" y="23.546" fill="#e6f3ff" rx="2" transform="rotate(45 49.329 26.04)" opacity="1" data-original="#e6f3ff" class=""></rect><path fill="#21257c" d="M53.916 34.349a2.992 2.992 0 0 1-2.121-.878l-9.9-9.9a3.004 3.004 0 0 1 0-4.243l.707-.707a3.007 3.007 0 0 1 4.243 0l9.9 9.9a3.006 3.006 0 0 1 0 4.243c-.727.81-1.703 1.656-2.83 1.585zm-9.192-14.606c-.542-.067-1.06.69-1.415 1-.39.39-.39 1.024 0 1.414l9.9 9.9a1 1 0 0 0 1.415 0l.707-.707c.39-.39.39-1.026-.001-1.415l-9.899-9.9a1 1 0 0 0-.707-.292z" opacity="1" data-original="#21257c" class=""></path><rect width="18" height="5" x="36.784" y="27.081" fill="#e6f3ff" rx="2" transform="rotate(45 45.793 29.575)" opacity="1" data-original="#e6f3ff" class=""></rect><path fill="#21257c" d="M50.38 37.883a2.989 2.989 0 0 1-2.12-.877l-9.9-9.9a3.002 3.002 0 0 1 0-4.242l.707-.707a3.002 3.002 0 0 1 4.242 0l9.9 9.9a3.002 3.002 0 0 1 0 4.242c-.727.81-1.703 1.655-2.828 1.584zm-9.192-14.604c-.541-.067-1.06.69-1.414 1-.39.389-.39 1.024 0 1.413l9.9 9.9a1 1 0 0 0 1.414 0l.707-.707c.39-.39.39-1.025 0-1.414l-9.9-9.9a.996.996 0 0 0-.707-.292z" opacity="1" data-original="#21257c" class=""></path><path fill="#4aa5ff" d="m51.792 13.665 8.484 8.484a2 2 0 0 1 0 2.828l-2.828 2.828a2 2 0 0 1-2.828 0l-8.484-8.484z" opacity="1" data-original="#4aa5ff" class=""></path><path fill="#21257c" d="M56.038 30.228a.997.997 0 0 1-.707-.293l-9.9-9.9a1 1 0 0 1 0-1.414l4.243-4.242c1.133-1.134 3.11-1.132 4.243 0l7.07 7.071c1.164 1.115 1.164 3.126 0 4.242l-4.242 4.243a.997.997 0 0 1-.707.293zm-8.485-10.9 8.485 8.485 3.535-3.535c.387-.373.39-1.041 0-1.413l-7.071-7.072a1.024 1.024 0 0 0-1.414 0l-3.535 3.535z" opacity="1" data-original="#21257c" class=""></path><path fill="#e6f3ff" d="M33.659 42.707c-.854.03-1.346-1.112-.707-1.707l5.657-5.657c.926-.92 2.337.484 1.414 1.414l-5.657 5.657a.997.997 0 0 1-.707.293z" opacity="1" data-original="#e6f3ff" class=""></path><g fill="#4aa5ff"><path d="M35.11 27.5h-16c-1.311-.02-1.318-1.978 0-2h16c1.309.02 1.318 1.978 0 2zM30.11 32.5h-11c-1.312-.02-1.318-1.978 0-2h11c1.31.02 1.316 1.978 0 2zM25.11 37.5h-6c-1.314-.021-1.317-1.978 0-2h6c1.312.021 1.315 1.978 0 2z" fill="#4aa5ff" opacity="1" data-original="#4aa5ff" class=""></path></g><path fill="#e6f3ff" d="m35.03 50.24-.2.2c-2.34.415-7.907 1.4-10.18 1.8-.9.15-1.68-.63-1.52-1.53.384-2.215 1.394-7.89 1.8-10.17 5.28.38 9.52 4.49 10.1 9.7z" opacity="1" data-original="#e6f3ff" class=""></path><path fill="#4aa5ff" d="m28.28 51.6-3.63.64c-.9.15-1.68-.63-1.52-1.53l.62-3.53c1.91 1 3.49 2.54 4.53 4.42z" opacity="1" data-original="#4aa5ff" class=""></path><path fill="#21257c" d="M24.425 53.256c-1.39.035-2.559-1.346-2.28-2.716l1.795-10.172a.998.998 0 0 1 .278-.533L38.36 25.692a1 1 0 0 1 1.414 0l9.9 9.9a1 1 0 0 1 0 1.414L35.53 51.148a.99.99 0 0 1-.533.278L24.826 53.22a2.234 2.234 0 0 1-.401.035zm1.43-12.23-1.74 9.862a.307.307 0 0 0 .086.276c.044.044.14.108.278.088l9.86-1.74 13.214-13.213-8.486-8.486-13.212 13.213z" opacity="1" data-original="#21257c" class=""></path></g></svg>